<svg xmlns="http://www.w3.org/2000/svg" xmlns:xlink="http://www.w3.org/1999/xlink" width="500" zoomAndPan="magnify" viewBox="0 0 375 374.999991" height="500" preserveAspectRatio="xMidYMid meet" version="1.0"><defs><clipPath id="fcdbd8e9dd"><path d="M 46.585938 20.179688 L 293 20.179688 L 293 246 L 46.585938 246 Z M 46.585938 20.179688 " clip-rule="nonzero"/></clipPath><clipPath id="cbb4b1077a"><path d="M 82 129 L 328.585938 129 L 328.585938 354.679688 L 82 354.679688 Z M 82 129 " clip-rule="nonzero"/></clipPath></defs><g clip-path="url(#fcdbd8e9dd)"><path fill="#ff914d" d="M 124.453125 155.332031 C 132.449219 142.882812 177.929688 106.261719 209.792969 117.140625 C 199.152344 139.808594 129.214844 139.265625 131.15625 190.773438 C 140.078125 183.078125 172.421875 170.179688 185.671875 164.414062 L 202.78125 156.835938 C 224.117188 150.8125 256.082031 130.328125 269.957031 111.703125 C 290.039062 84.738281 294.988281 53.539062 292.257812 20.179688 C 285.101562 29.121094 269.796875 34.101562 250.65625 39.429688 C 182.6875 58.335938 178.949219 62.425781 129.078125 102.816406 C 85.085938 138.453125 54.554688 186.359375 46.59375 245.386719 C 71.039062 243.648438 85.78125 195.859375 124.453125 155.332031 Z M 124.453125 155.332031 " fill-opacity="1" fill-rule="nonzero"/></g><g clip-path="url(#cbb4b1077a)"><path fill="#af8532" d="M 250.542969 219.660156 C 242.546875 232.109375 197.066406 268.726562 165.203125 257.851562 C 175.84375 235.179688 245.78125 235.726562 243.839844 184.21875 C 234.917969 191.910156 202.574219 204.808594 189.324219 210.578125 L 172.214844 218.15625 C 150.878906 224.175781 118.914062 244.664062 105.039062 263.285156 C 84.957031 290.25 80.007812 321.449219 82.738281 354.808594 C 89.898438 345.867188 105.199219 340.886719 124.339844 335.5625 C 192.308594 316.652344 196.046875 312.5625 245.917969 272.171875 C 289.910156 236.539062 320.441406 188.632812 328.398438 129.605469 C 303.957031 131.339844 289.214844 179.128906 250.542969 219.660156 Z M 250.542969 219.660156 " fill-opacity="1" fill-rule="nonzero"/></g></svg>